<svg width="160" height="160" viewBox="0 0 160 160" xmlns="http://www.w3.org/2000/svg" fill="none">
  <rect width="160" height="160" fill="hsl(35 70% 96%)"/>
  <g stroke="hsl(25 65% 55%)" stroke-width="2" stroke-linecap="round" opacity="0.45">
    <path d="M16 24h24" />
    <path d="M28 12v24" />
    <rect x="12" y="12" width="32" height="32" rx="8" />
  </g>
  <g stroke="hsl(145 45% 45%)" stroke-width="1.5" stroke-linecap="round" opacity="0.35">
    <path d="M64 48h32" />
    <path d="M72 40v24" />
    <circle cx="80" cy="52" r="14" />
  </g>
  <g stroke="hsl(14 65% 55%)" stroke-width="2" opacity="0.35">
    <path d="M120 32c8 0 8 12 0 12s-8 12 0 12 8 12 0 12" stroke-linecap="round" />
    <path d="M112 44h32" />
  </g>
  <g stroke="hsl(25 35% 45%)" stroke-width="1.2" opacity="0.35">
    <path d="M24 104l12 12-12 12-12-12 12-12z" />
    <path d="M20 116h8" />
  </g>
  <g stroke="hsl(145 35% 45%)" stroke-width="1.2" opacity="0.3">
    <circle cx="128" cy="112" r="16" />
    <path d="M128 96v32" />
    <path d="M112 112h32" />
  </g>
  <g stroke="hsl(14 55% 55%)" stroke-width="1.2" opacity="0.4">
    <path d="M76 124l12 12-12 12-12-12 12-12z" />
    <path d="M72 136h8" />
  </g>
</svg>
